#!OML:ASF F:\VICON\USERDATA\INSTALL\rory3\rory3.ASF
:FULLY-SPECIFIED
:DEGREES
75
root -0.735514701460355 17.21165384907645 27.580513803143834 1.7002252126605226 0.9672057938361381 -0.7544871609304562
lfemur -8.248302840071663 -0.3494628090816508 -23.978992684507013
ltibia 62.878713623901554
lfoot -20.027845739995605 -2.221802326195527
ltoes -7.2202622609378935
rfemur -22.954878098818615 0.6680394414989328 25.168376154270813
rtibia 73.55173897349884
rfoot -7.633621339634878 -9.05427724484062
rtoes 16.110769548995197
lowerback 15.970226215544265 0.5015177645651488 -0.4009917579248594
upperback -0.03291785192879837 0.5081460553248216 0.21087763888842725
thorax -9.751240222328828 0.33425775010658465 1.464297450189013
lowerneck -20.497589437333026 -3.7462987380632082 -2.0011001272229056
upperneck 11.46381448792348 -4.981856655712919 3.540896588210498
head 7.111155419357994 -2.161255043797404 0.9270764051873857
lclavicle -6.477657499302172e-16 -4.86068735717025e-15
lhumerus -44.09415475238644 -15.770920438303545 97.89825799670548
lradius 110.77758431620464
lwrist 35.54971885830011
lhand -31.163206789024084 -1.3668501556893173
lfingers 7.125019999999998
lthumb -4.557808012753262 28.4385588779855
rclavicle -6.477657499772382e-16 -4.8606873572029085e-15
rhumerus -47.75941802122418 12.721087961889001 -101.1746005256643
rradius 118.82244041770576
rwrist -14.467331030745324
rhand -18.527993405247777 35.863978554017486
rfingers 7.125019999999998
rthumb 7.765804803750853 5.0914191120721615
76
root -0.7258880095756075 17.148709771684945 27.862406356643064 2.0241172241807845 0.6978625321826131 -0.9613397704875766
lfemur -8.016425908717205 -0.031670284486922995 -23.33973642674365
ltibia 65.3343708681822
lfoot -20.54286093158797 -1.261602194162343
ltoes -9.395460543435329
rfemur -23.99172540099642 0.684613145812994 25.43893029138572
rtibia 72.29441338803088
rfoot -9.090382270229243 -8.693161739590822
rtoes 14.361340823611147
lowerback 15.996088983164043 0.4090543539307015 -0.29289719881486675
upperback -0.07069630294106577 0.4137534065233268 0.43122518998125803
thorax -9.84806515962042 0.27702446948403625 1.5702931346152527
lowerneck -20.685518821913988 -3.5917128810115835 -1.9881004850103374
upperneck 11.5022509161866 -4.727933848667083 3.3959304720132337
head 7.136114337508205 -2.0379357941318696 0.8975388453326743
lclavicle -6.477657499361977e-16 -4.860687357174402e-15
lhumerus -41.82765686082398 -16.028774551933004 97.7035464519809
lradius 111.27588602635355
lwrist 34.576628618779075
lhand -31.16408102452502 -0.6319456733147994
lfingers 7.125019999999998
lthumb -4.744711339119285 28.96597082694023
rclavicle -6.47765749985542e-16 -4.860687357208695e-15
rhumerus -48.22857542660347 12.389352075005796 -101.38727997981678
rradius 118.52881390344706
rwrist -14.845909763678339
rhand -18.415925884008075 36.02010651071834
rfingers 7.125019999999998
rthumb 7.991946362021155 5.366507494719857
77
root -0.7332699030275459 17.120856884727214 27.683653413582032 2.3255499470037257 0.1667165059467156 -1.2589095516705813
lfemur -7.831868508400483 0.32596698932898294 -22.543812548089566
ltibia 67.88291988592074
lfoot -19.91868801948381 -0.5603024029693255
ltoes -10.164853391388254
rfemur -24.70340450357105 0.9740107594993224 25.964613232907755
rtibia 69.97242048704884
rfoot -10.62419426950289 -8.574868667863264
rtoes 12.27991423269187
lowerback 16.020776360742484 0.34180714482741903 -0.11284756135872986
upperback -0.11799154360211017 0.35092243281149826 0.6999519126880258
thorax -9.921544130167417 0.24826454946296383 1.7041821244545137
lowerneck -20.81759679257404 -3.448559847483247 -1.9784376516086242
upperneck 11.622811313426027 -4.495147054221826 3.206229426358389
head 7.176836897096312 -1.9255582257258785 0.8488077242521118
lclavicle -6.477657499383934e-16 -4.860687357175921e-15
lhumerus -40.08157416106981 -16.00727301762054 97.44354742820931
lradius 112.04095635024026
lwrist 34.175611136318636
lhand -31.037937892654796 -0.39831972067098254
lfingers 7.125019999999998
lthumb -4.6006588267573605 29.24403069576317
rclavicle -6.477657499839988e-16 -4.860687357207554e-15
rhumerus -48.73252988591593 12.270186229758616 -101.466260682144
rradius 118.4961936070984
rwrist -15.488914652229056
rhand -18.363770606767492 36.067955336427595
rfingers 7.125019999999998
rthumb 8.10024425621669 5.620430738819868
78
root -0.7226457126865377 17.184429870870865 27.724368534086302 2.8562803901135876 0.023924995138656202 -1.7206426860481143
lfemur -7.774907884541703 0.5736518755648967 -21.529441718948565
ltibia 70.41393222061427
lfoot -18.35240781720034 -0.33895705123138775
ltoes -14.619711335063693
rfemur -24.677996302493238 1.3252916024125794 26.77594115298605
rtibia 65.9985629858704
rfoot -11.052281002366868 -8.325039178816057
rtoes 8.132497530604915
lowerback 15.783268984586881 0.23283860371300946 0.31512725376832096
upperback -0.2458722773318629 0.289883208937741 1.0945119682073878
thorax -9.892518267860702 0.20343322582479628 1.78306866150289
lowerneck -20.86768272518421 -3.3204952483706704 -1.9643572330716974
upperneck 11.880821051898984 -4.280970247237488 2.9270181839773604
head 7.2856958712136075 -1.8250791229038994 0.7583193425324595
lclavicle -6.477657499462512e-16 -4.860687357181589e-15
lhumerus -38.95284430589921 -15.799831161368175 97.13079928083242
lradius 113.14255329656078
lwrist 34.965566266113456
lhand -30.039418218791287 -0.5452156090743735
lfingers 7.125019999999998
lthumb -3.6886140471213276 29.089480616342446
rclavicle -6.47765749985645e-16 -4.8606873572087744e-15
rhumerus -49.26698328822647 12.282644876663857 -101.42387958217957
rradius 118.70792985653671
rwrist -16.15820764158829
rhand -18.292427419240372 36.342915249426575
rfingers 7.125019999999998
rthumb 8.311060186283402 6.1982889199531055
